<?xml version="1.0" encoding="UTF-8"?>
<svg version="1.1" xmlns="http://www.w3.org/2000/svg" width="283" height="192">
<path d="M0 0 C21.78 0 43.56 0 66 0 C66 23.1 66 46.2 66 70 C68.64 70 71.28 70 74 70 C74 76.27 74 82.54 74 89 C65.09 89 56.18 89 47 89 C46.505 85.535 46.505 85.535 46 82 C45.40832031 82.40992188 44.81664062 82.81984375 44.20703125 83.2421875 C43.41683594 83.78101563 42.62664062 84.31984375 41.8125 84.875 C41.03519531 85.40867187 40.25789063 85.94234375 39.45703125 86.4921875 C31.00511835 91.67889399 19.57720987 91.44715948 10.03515625 89.34765625 C1.6589909 85.9176975 -5.10636389 79.10477902 -9 71 C-11.56858236 63.04727384 -10.56473129 54.58442566 -7.12109375 47.11328125 C-3.12469853 39.58000663 3.43674908 35.10974425 11.390625 32.33203125 C18.07741909 30.42399662 24.72637792 30.67395919 31.625 30.8125 C32.91535156 30.82603516 34.20570313 30.83957031 35.53515625 30.85351562 C38.69028724 30.88857264 41.84520062 30.94236835 45 31 C45 27.04 45 23.08 45 19 C30.15 19 15.3 19 0 19 C0 12.73 0 6.46 0 0 Z M12.0625 55.25 C10.60379352 59.0254756 10.74449585 62.21817651 12 66 C14.85446862 69.64737656 17.50012302 71.84886868 22 73 C28.16286164 73.5135718 33.39622385 72.71116027 39 70 C41.60776117 67.77253733 43.47160239 66.05679522 45 63 C45.07116382 60.62597499 45.08409085 58.24999323 45.0625 55.875 C45.05347656 54.59367187 45.04445312 53.31234375 45.03515625 51.9921875 C45.02355469 51.00476563 45.01195312 50.01734375 45 49 C40.95857785 48.88337739 36.91759135 48.8126065 32.875 48.75 C31.73289062 48.71648437 30.59078125 48.68296875 29.4140625 48.6484375 C21.45232283 48.55585913 17.37962267 49.0752769 12.0625 55.25 Z " fill="#E01995" transform="translate(173,102)"/>
<path d="M0 0 C3.27081471 -0.02902429 6.5415963 -0.04680684 9.8125 -0.0625 C10.74126953 -0.07087891 11.67003906 -0.07925781 12.62695312 -0.08789062 C13.51962891 -0.09111328 14.41230469 -0.09433594 15.33203125 -0.09765625 C16.56530151 -0.10551147 16.56530151 -0.10551147 17.82348633 -0.11352539 C20 0 20 0 23 1 C23.00142502 1.76563766 23.00285004 2.53127533 23.00431824 3.32011414 C23.02216655 10.54452748 23.06383283 17.7682288 23.13209057 24.99232769 C23.16634532 28.70614851 23.19146804 32.41955866 23.19555664 36.13354492 C23.1998431 39.71954484 23.2283321 43.30461864 23.27343178 46.89032936 C23.28639611 48.25656548 23.29071815 49.6229125 23.28615379 50.9892025 C22.8557894 59.27601683 22.8557894 59.27601683 26.42602539 66.29760742 C27.27543701 66.85939697 28.12484863 67.42118652 29 68 C29.62390625 68.42539063 30.2478125 68.85078125 30.890625 69.2890625 C37.16618584 71.40415893 45.5883763 71.10856545 51.625 68.375 C55.63404583 65.95412008 58.15539595 62.65419912 59.58482361 58.16217041 C60.08683859 55.5477589 60.16334247 53.06799161 60.20532227 50.40527344 C60.22526749 49.28441345 60.24521271 48.16355347 60.26576233 47.00872803 C60.28247482 45.80444153 60.29918732 44.60015503 60.31640625 43.359375 C60.33718735 42.12205627 60.35796844 40.88473755 60.37937927 39.60992432 C60.43365872 36.32861309 60.48391779 33.04727267 60.53222656 29.76586914 C60.58256092 26.41416896 60.6382636 23.0625628 60.69335938 19.7109375 C60.80044513 13.14069321 60.90174126 6.57038199 61 0 C67.93 0 74.86 0 82 0 C82 29.37 82 58.74 82 89 C75.07 89 68.14 89 61 89 C60.505 85.04 60.505 85.04 60 81 C57.95880212 82.61594832 55.95927063 84.2856382 54 86 C54 86.66 54 87.32 54 88 C53.319375 88.12375 52.63875 88.2475 51.9375 88.375 C48.93487282 88.96227928 48.93487282 88.96227928 45.8359375 90.015625 C36.82927771 92.32690633 25.68274353 92.51237589 17.20703125 88.3828125 C8.8023316 83.11685909 3.44577393 76.78160525 0.45240784 67.25775146 C-0.134288 64.32983274 -0.11931402 61.56603176 -0.11352539 58.57910156 C-0.11344986 57.27805481 -0.11337433 55.97700806 -0.11329651 54.63653564 C-0.10819024 53.22123171 -0.10297425 51.80592816 -0.09765625 50.390625 C-0.09579035 48.93902637 -0.09436726 47.48742712 -0.09336853 46.03582764 C-0.08955688 42.22180431 -0.07973815 38.40781927 -0.06866455 34.59381104 C-0.05842135 30.69926471 -0.05386468 26.80471217 -0.04882812 22.91015625 C-0.03811465 15.27342007 -0.02105449 7.63671541 0 0 Z M21 53 C21 54.65 21 56.3 21 58 C21.33 58 21.66 58 22 58 C22 56.35 22 54.7 22 53 C21.67 53 21.34 53 21 53 Z M22 59 C23 61 23 61 23 61 Z " fill="#00243C" transform="translate(61,1)"/>
<path d="M0 0 C4.18744075 -0.05840224 8.37477565 -0.09373166 12.5625 -0.125 C13.74392578 -0.14175781 14.92535156 -0.15851562 16.14257812 -0.17578125 C31.62098729 -0.26249503 31.62098729 -0.26249503 36.8125 4.75 C37.8953125 5.86375 37.8953125 5.86375 39 7 C39.804375 7.7425 40.60875 8.485 41.4375 9.25 C50.60850774 19.09205708 51.29738707 28.45937829 51.1953125 41.46484375 C51.19157708 42.8673126 51.18873261 44.26978407 51.18673706 45.67225647 C51.17914221 49.34326527 51.15952998 53.01411295 51.1373291 56.68505859 C51.11678072 60.43910544 51.10771621 64.19317861 51.09765625 67.94726562 C51.07627963 75.29825864 51.04113196 82.64908612 51 90 C44.07 90 37.14 90 30 90 C29.98541748 88.37054443 29.97083496 86.74108887 29.95581055 85.06225586 C29.89773638 79.00327874 29.82050298 72.94466969 29.73754883 66.88598633 C29.70434257 64.26625553 29.67629734 61.64645394 29.65356445 59.02661133 C29.61994046 55.25571589 29.56761804 51.48546678 29.51171875 47.71484375 C29.50532883 46.54791489 29.4989389 45.38098602 29.49235535 44.17869568 C29.35344925 36.45511364 28.76370941 31.18889547 23.5625 25.1875 C18.70325949 21.03936786 15.05145831 20.73026686 8.75 20.875 C8.00492188 20.88402344 7.25984375 20.89304687 6.4921875 20.90234375 C4.66131941 20.92581642 2.83061762 20.96168475 1 21 C1 21.66 1 22.32 1 23 C0.113125 23.226875 -0.77375 23.45375 -1.6875 23.6875 C-6.26856776 25.50264006 -9.02023669 27.89327286 -11.11474609 32.39697266 C-12.42176488 37.71660398 -12.35923179 42.93864675 -12.4140625 48.3984375 C-12.43342865 49.58853424 -12.4527948 50.77863098 -12.4727478 52.00479126 C-12.53238503 55.79478861 -12.57886616 59.58481659 -12.625 63.375 C-12.66319431 65.94923178 -12.70224689 68.52345097 -12.7421875 71.09765625 C-12.83807381 77.39833496 -12.92216391 83.69907349 -13 90 C-19.93 90 -26.86 90 -34 90 C-34 60.63 -34 31.26 -34 1 C-13 1 -13 1 -11 2 C-10.59270772 4.32156597 -10.25561323 6.6568787 -10 9 C-9.0925 8.236875 -8.185 7.47375 -7.25 6.6875 C-5.40603693 5.145038 -3.56214212 3.67736788 -1.625 2.25 C-1.08875 1.8375 -0.5525 1.425 0 1 C0 0.67 0 0.34 0 0 Z M7 19 C7 19.33 7 19.66 7 20 C8.65 20 10.3 20 12 20 C12 19.67 12 19.34 12 19 C10.35 19 8.7 19 7 19 Z " fill="#00253E" transform="translate(188,0)"/>
<path d="M0 0 C5.28 0 10.56 0 16 0 C16 6.6 16 13.2 16 20 C14.494375 20.144375 12.98875 20.28875 11.4375 20.4375 C10.52355469 20.53289063 9.60960937 20.62828125 8.66796875 20.7265625 C6.53094301 20.94558417 4.39079961 21.13410003 2.25 21.3125 C-3.05103753 22.43387332 -6.03197403 24.74418253 -9.3125 29 C-11.70485002 33.2530667 -12.12604971 36.56418198 -12.20532227 41.41113281 C-12.22526749 42.49195129 -12.24521271 43.57276978 -12.26576233 44.68634033 C-12.29083107 46.42714874 -12.29083107 46.42714874 -12.31640625 48.203125 C-12.33718735 49.39605164 -12.35796844 50.58897827 -12.37937927 51.8180542 C-12.44476239 55.62864423 -12.50370776 59.43930314 -12.5625 63.25 C-12.60569589 65.83334046 -12.64931052 68.41667395 -12.69335938 71 C-12.80043237 77.33326274 -12.90173174 83.66659477 -13 90 C-19.6 90 -26.2 90 -33 90 C-33 60.63 -33 31.26 -33 1 C-26.4 1 -19.8 1 -13 1 C-12.67 4.3 -12.34 7.6 -12 11 C-10.7625 9.906875 -9.525 8.81375 -8.25 7.6875 C-6.12478367 5.81022558 -4.01859072 4.01368661 -1.734375 2.33203125 C-0.87585937 1.67267578 -0.87585937 1.67267578 0 1 C0 0.67 0 0.34 0 0 Z M7 19 C7 19.33 7 19.66 7 20 C8.65 20 10.3 20 12 20 C12 19.67 12 19.34 12 19 C10.35 19 8.7 19 7 19 Z " fill="#00253E" transform="translate(33,0)"/>
<path d="M0 0 C6.93 0 13.86 0 21 0 C21.02255012 11.45650367 21.04091456 22.91299271 21.05181217 34.36951351 C21.05704122 39.68865213 21.06413927 45.00777484 21.07543945 50.3269043 C21.08626755 55.45563985 21.09227667 60.58436006 21.09487724 65.71310616 C21.09673163 67.67441614 21.10035251 69.63572524 21.10573006 71.59702873 C21.11293946 74.33415447 21.11399099 77.07121597 21.11352539 79.80834961 C21.11712067 80.62761932 21.12071594 81.44688904 21.12442017 82.29098511 C21.11405216 87.88594784 21.11405216 87.88594784 20 89 C13.4 89 6.8 89 0 89 C0 59.63 0 30.26 0 0 Z " fill="#DF1995" transform="translate(259,102)"/>
<path d="M0 0 C12.89352518 0.41726619 12.89352518 0.41726619 18 5 C21.76061713 9.10496279 21.55286032 12.70772689 21.421875 18.078125 C20.7794791 22.52731142 19.37639008 24.08402675 16 27 C11.51291804 29.70351382 7.1025261 29.65292988 2 29 C-2.40608743 26.83701163 -5.1987497 24.60319521 -7 20 C-7.69241533 14.89664257 -7.6139627 11.16441201 -5.1875 6.5625 C-3.51949606 4.60855253 -1.85973569 2.76674891 0 1 C0 0.67 0 0.34 0 0 Z " fill="#00263E" transform="translate(262,5)"/>
<path d="M0 0 C7.62427934 -0.46679261 12.90782065 0.368358 18.9375 5.5 C21.69983505 9.15872192 21.64162039 12.92614577 21.41796875 17.375 C20.81855895 21.13951763 19.6172806 23.24496779 17 26 C12.52576109 29.05061744 8.29042342 29.95227622 3 29 C-1.30543683 26.76448472 -4.60229159 24.2420995 -7 20 C-7.83522564 14.91194175 -7.60538148 11.14813729 -5.1875 6.5625 C-3.51949606 4.60855253 -1.85973569 2.76674891 0 1 C0 0.67 0 0.34 0 0 Z " fill="#E01996" transform="translate(262,57)"/>
<path d="M0 0 C0.99 0.33 1.98 0.66 3 1 C3 29.38 3 57.76 3 87 C2.01 87 1.02 87 0 87 C0 58.29 0 29.58 0 0 Z " fill="#E51B95" transform="translate(277,103)"/>
<path d="M0 0 C0.99 0.33 1.98 0.66 3 1 C2.67 1.66 2.34 2.32 2 3 C1.87762246 5.62323918 1.81432246 8.22168732 1.79467773 10.84619141 C1.78477814 11.65602982 1.77487854 12.46586823 1.76467896 13.30024719 C1.73302601 15.98398896 1.70829156 18.66774845 1.68359375 21.3515625 C1.6630275 23.2095893 1.64203111 25.06761139 1.62062073 26.92562866 C1.5653661 31.82137235 1.51597179 36.71715851 1.46777344 41.61297607 C1.41758315 46.60660593 1.3618842 51.60017395 1.30664062 56.59375 C1.19901758 66.39578054 1.09758183 76.19786472 1 86 C0.67 86 0.34 86 0 86 C0 57.62 0 29.24 0 0 Z " fill="#F11BA1" transform="translate(277,103)"/>
<path d="M0 0 C0.33 0 0.66 0 1 0 C1 29.04 1 58.08 1 88 C0.67 88 0.34 88 0 88 C0 58.96 0 29.92 0 0 Z " fill="#CD3199" transform="translate(281,102)"/>
<path d="M0 0 C0.33 0 0.66 0 1 0 C1 29.04 1 58.08 1 88 C0.67 88 0.34 88 0 88 C0 58.96 0 29.92 0 0 Z " fill="#FF0081" transform="translate(256,102)"/>
<path d="M0 0 C0.33 0 0.66 0 1 0 C1 29.04 1 58.08 1 88 C0.67 88 0.34 88 0 88 C0 58.96 0 29.92 0 0 Z " fill="#00203F" transform="translate(144,2)"/>
<path d="M0 0 C0.33 0 0.66 0 1 0 C1 29.04 1 58.08 1 88 C0.67 88 0.34 88 0 88 C0 58.96 0 29.92 0 0 Z " fill="#00007E" transform="translate(152,2)"/>
<path d="M0 0 C14.19 0 28.38 0 43 0 C43 3.3 43 6.6 43 10 C34.09 10 25.18 10 16 10 C16 9.67 16 9.34 16 9 C24.58 9 33.16 9 42 9 C42 6.36 42 3.72 42 1 C28.14 1 14.28 1 0 1 C0 0.67 0 0.34 0 0 Z " fill="#F9017F" transform="translate(174,122)"/>
<path d="M0 0 C0.33 0 0.66 0 1 0 C1 22.44 1 44.88 1 68 C2.98 68 4.96 68 7 68 C7 68.33 7 68.66 7 69 C4.69 69 2.38 69 0 69 C0 46.23 0 23.46 0 0 Z " fill="#E4198F" transform="translate(240,102)"/>
<path d="M0 0 C2.84058674 2.84058674 2.95645881 4.94610546 3.12025452 8.91070557 C3.11803391 10.03877625 3.11581329 11.16684692 3.11352539 12.32910156 C3.11344986 13.61012756 3.11337433 14.89115356 3.11329651 16.21099854 C3.10819026 17.60420775 3.10297427 18.99741657 3.09765625 20.390625 C3.09579032 21.81980337 3.09436724 23.24898238 3.09336853 24.67816162 C3.08955715 28.43300148 3.07973867 32.18780243 3.06866455 35.94262695 C3.05842075 39.77685012 3.05386455 43.61107959 3.04882812 47.4453125 C3.03811514 54.96355937 3.02105531 62.48177423 3 70 C2.67 70 2.34 70 2 70 C1.98969254 69.22627548 1.97938507 68.45255096 1.96876526 67.65538025 C1.87055731 60.34356575 1.76801107 53.03183076 1.66066074 45.72014523 C1.60562964 41.96165167 1.55224281 38.20315011 1.50268555 34.44458008 C1.45474788 30.8135248 1.4023972 27.1825569 1.34705925 23.55160713 C1.32676807 22.17024491 1.30803434 20.78885885 1.29092598 19.40745354 C1.26658628 17.46420557 1.23606255 15.52103811 1.20532227 13.57788086 C1.18977798 12.47423691 1.1742337 11.37059296 1.15821838 10.23350525 C0.98893934 6.77395361 0.53935731 3.41979257 0 0 Z " fill="#002245" transform="translate(238,20)"/>
<path d="M0 0 C21.45 0 42.9 0 65 0 C65 0.33 65 0.66 65 1 C43.55 1 22.1 1 0 1 C0 0.67 0 0.34 0 0 Z " fill="#C10082" transform="translate(174,100)"/>
<path d="M0 0 C1.0944301 3.28329031 0.84868777 3.83591732 0 7 C-0.11238371 8.77086988 -0.1757525 10.54514997 -0.20532227 12.31933594 C-0.22526749 13.38013367 -0.24521271 14.4409314 -0.26576233 15.53387451 C-0.28247482 16.67253967 -0.29918732 17.81120483 -0.31640625 18.984375 C-0.33718735 20.15510559 -0.35796844 21.32583618 -0.37937927 22.53204346 C-0.44475628 26.27130269 -0.50370491 30.01063205 -0.5625 33.75 C-0.60569647 36.2851635 -0.64931112 38.82031991 -0.69335938 41.35546875 C-0.80042559 47.5702384 -0.9022141 53.78507778 -1 60 C-1.33 60 -1.66 60 -2 60 C-2.05076484 52.41946272 -2.08576094 44.8389694 -2.10986328 37.25830078 C-2.11991262 34.68015912 -2.13355426 32.10202882 -2.15087891 29.52392578 C-2.17517367 25.81540111 -2.18649396 22.10702732 -2.1953125 18.3984375 C-2.20563507 17.24822113 -2.21595764 16.09800476 -2.22659302 14.91293335 C-2.22734102 9.56185962 -2.21379019 4.98677305 0 0 Z " fill="#001C3A" transform="translate(178,30)"/>
<path d="M0 0 C0.33 0 0.66 0 1 0 C1 19.8 1 39.6 1 60 C0.67 60 0.34 60 0 60 C0 40.2 0 20.4 0 0 Z " fill="#000000" transform="translate(58,2)"/>
<path d="M0 0 C1.95357699 3.90715399 2.24651067 5.24671584 2.22705078 9.41113281 C2.22689972 10.49195129 2.22674866 11.57276978 2.22659302 12.68634033 C2.21627045 13.84687927 2.20594788 15.00741821 2.1953125 16.203125 C2.1924826 17.39605164 2.18965271 18.58897827 2.18673706 19.8180542 C2.17554053 23.62880476 2.15043653 27.43932045 2.125 31.25 C2.11496954 33.83332994 2.1058438 36.41666356 2.09765625 39 C2.07560289 45.33341349 2.04213035 51.66668997 2 58 C1.67 58 1.34 58 1 58 C0.505 29.29 0.505 29.29 0 0 Z " fill="#002B2C" transform="translate(215,32)"/>
<path d="M0 0 C0.33 0 0.66 0 1 0 C1 17.82 1 35.64 1 54 C0.67 54 0.34 54 0 54 C0 36.18 0 18.36 0 0 Z " fill="#003E40" transform="translate(21,36)"/>
<path d="M0 0 C0.33 0 0.66 0 1 0 C1 17.16 1 34.32 1 52 C0.67 52 0.34 52 0 52 C0 34.84 0 17.68 0 0 Z " fill="#000000" transform="translate(120,2)"/>
<path d="M0 0 C7.92 0 15.84 0 24 0 C24 12 24 12 22 15 C22.33 10.38 22.66 5.76 23 1 C15.41 1 7.82 1 0 1 C0 0.67 0 0.34 0 0 Z " fill="#F602BF" transform="translate(193,152)"/>
<path d="M0 0 C0.66 0 1.32 0 2 0 C2 6.27 2 12.54 2 19 C1.34 19 0.68 19 0 19 C0 12.73 0 6.46 0 0 Z " fill="#00003E" transform="translate(50,0)"/>
<path d="M0 0 C0.33 0 0.66 0 1 0 C1.33 2.97 1.66 5.94 2 9 C0.02 9.99 0.02 9.99 -2 11 C-2.24042276 6.91281305 -1.42258812 3.82320557 0 0 Z " fill="#E918A0" transform="translate(222,180)"/>
<path d="M0 0 C6.6 0 13.2 0 20 0 C20 0.33 20 0.66 20 1 C13.4 1 6.8 1 0 1 C0 0.67 0 0.34 0 0 Z " fill="#C70082" transform="translate(259,100)"/>
<path d="M0 0 C6.6 0 13.2 0 20 0 C20 0.33 20 0.66 20 1 C13.4 1 6.8 1 0 1 C0 0.67 0 0.34 0 0 Z " fill="#000077" transform="translate(219,91)"/>
<path d="M0 0 C6.6 0 13.2 0 20 0 C20 0.33 20 0.66 20 1 C13.4 1 6.8 1 0 1 C0 0.67 0 0.34 0 0 Z " fill="#000079" transform="translate(155,91)"/>
<path d="M0 0 C6.6 0 13.2 0 20 0 C20 0.33 20 0.66 20 1 C13.4 1 6.8 1 0 1 C0 0.67 0 0.34 0 0 Z " fill="#000079" transform="translate(123,91)"/>
<path d="M0 0 C6.6 0 13.2 0 20 0 C20 0.33 20 0.66 20 1 C13.4 1 6.8 1 0 1 C0 0.67 0 0.34 0 0 Z " fill="#000079" transform="translate(0,91)"/>
<path d="M0 0 C0.33 0 0.66 0 1 0 C1 6.27 1 12.54 1 19 C0.67 19 0.34 19 0 19 C0 12.73 0 6.46 0 0 Z " fill="#C50080" transform="translate(171,102)"/>
<path d="M0 0 C0.33 0 0.66 0 1 0 C1 5.94 1 11.88 1 18 C0.67 18 0.34 18 0 18 C0 12.06 0 6.12 0 0 Z " fill="#FA00A7" transform="translate(249,172)"/>
<path d="M0 0 C0.33 0 0.66 0 1 0 C1 5.28 1 10.56 1 16 C0.67 16 0.34 16 0 16 C-0.19672365 14.27185839 -0.38196799 12.54240803 -0.5625 10.8125 C-0.71912109 9.36810547 -0.71912109 9.36810547 -0.87890625 7.89453125 C-0.99758751 5.05766623 -0.67765639 2.74576329 0 0 Z " fill="#E50097" transform="translate(161,155)"/>
<path d="M0 0 C5.28 0 10.56 0 16 0 C16 0.33 16 0.66 16 1 C10.72 1 5.44 1 0 1 C0 0.67 0 0.34 0 0 Z " fill="#001931" transform="translate(87,93)"/>
<path d="M0 0 C0.79560764 2.91499943 1.25322499 5.74561419 1.5625 8.75 C1.64628906 9.54921875 1.73007813 10.3484375 1.81640625 11.171875 C1.87699219 11.77515625 1.93757812 12.3784375 2 13 C1.34 12.67 0.68 12.34 0 12 C-0.44921875 10.0390625 -0.44921875 10.0390625 -0.6875 7.625 C-0.77386719 6.83351563 -0.86023438 6.04203125 -0.94921875 5.2265625 C-1 3 -1 3 0 0 Z " fill="#E40A9C" transform="translate(253,66)"/>
<path d="M0 0 C1.85228404 3.70456808 0.04136984 8.13205488 -1 12 C-2.42857143 3.42857143 -2.42857143 3.42857143 0 0 Z " fill="#F1139E" transform="translate(187,156)"/>
<path d="M0 0 C4.62 0 9.24 0 14 0 C14 0.33 14 0.66 14 1 C9.38 1 4.76 1 0 1 C0 0.67 0 0.34 0 0 Z " fill="#00091E" transform="translate(94,70)"/>
<path d="M0 0 C1.17246771 4.09902098 1.07076062 7.75436258 1 12 C-1.23551759 8.64672361 -1.17283528 8.09256343 -0.625 4.3125 C-0.51414063 3.50425781 -0.40328125 2.69601563 -0.2890625 1.86328125 C-0.19367188 1.24839844 -0.09828125 0.63351562 0 0 Z " fill="#000C52" transform="translate(253,14)"/>
<path d="M0 0 C3.3 0 6.6 0 10 0 C10 0.33 10 0.66 10 1 C6.7 1 3.4 1 0 1 C0 0.67 0 0.34 0 0 Z " fill="#001331" transform="translate(264,35)"/>
<path d="M0 0 C0.33 0 0.66 0 1 0 C1 1.65 1 3.3 1 5 C1.66 5.33 2.32 5.66 3 6 C2.34 6 1.68 6 1 6 C0.67 6.66 0.34 7.32 0 8 C0 5.36 0 2.72 0 0 Z " fill="#002B40" transform="translate(21,2)"/>
<path d="M0 0 C2.97 0 5.94 0 9 0 C9 0.33 9 0.66 9 1 C6.03 1 3.06 1 0 1 C0 0.67 0 0.34 0 0 Z " fill="#002D3B" transform="translate(265,4)"/>
<path d="M0 0 C2.64 0 5.28 0 8 0 C8 0.33 8 0.66 8 1 C5.36 1 2.72 1 0 1 C0 0.67 0 0.34 0 0 Z " fill="#FF00A2" transform="translate(195,173)"/>
<path d="M0 0 C2.64 0 5.28 0 8 0 C8 0.33 8 0.66 8 1 C5.36 1 2.72 1 0 1 C0 0.67 0 0.34 0 0 Z " fill="#F40094" transform="translate(265,87)"/>
<path d="M0 0 C0 0.99 0 1.98 0 3 C-0.99 3 -1.98 3 -3 3 C-2.01 2.01 -1.02 1.02 0 0 Z " fill="#001527" transform="translate(282,28)"/>
<path d="M0 0 C0.33 0 0.66 0 1 0 C1 1.65 1 3.3 1 5 C0.34 3.68 -0.32 2.36 -1 1 C-0.67 0.67 -0.34 0.34 0 0 Z " fill="#DA1192" transform="translate(218,185)"/>
<path d="M0 0 C0.99 0.99 1.98 1.98 3 3 C2.01 2.67 1.02 2.34 0 2 C0 1.34 0 0.68 0 0 Z " fill="#E70FA7" transform="translate(187,168)"/>
<path d="M0 0 C1.65 0 3.3 0 5 0 C5 0.33 5 0.66 5 1 C3.35 1 1.7 1 0 1 C0 0.67 0 0.34 0 0 Z " fill="#F2007F" transform="translate(185,132)"/>
<path d="M0 0 C0.33 0 0.66 0 1 0 C1 1.65 1 3.3 1 5 C0.67 5 0.34 5 0 5 C0 3.35 0 1.7 0 0 Z " fill="#000000" transform="translate(120,85)"/>
<path d="M0 0 C0.99 0.99 1.98 1.98 3 3 C2.01 2.67 1.02 2.34 0 2 C0 1.34 0 0.68 0 0 Z " fill="#001752" transform="translate(87,65)"/>
<path d="M0 0 C0.33 0 0.66 0 1 0 C1 1.65 1 3.3 1 5 C0.67 5 0.34 5 0 5 C0 3.35 0 1.7 0 0 Z " fill="#000019" transform="translate(119,54)"/>
<path d="M0 0 C0.99 0.33 1.98 0.66 3 1 C2.67 1.66 2.34 2.32 2 3 C1.34 2.01 0.68 1.02 0 0 Z " fill="#000044" transform="translate(209,24)"/>
<path d="M0 0 C1.65 0 3.3 0 5 0 C5 0.33 5 0.66 5 1 C3.35 1 1.7 1 0 1 C0 0.67 0 0.34 0 0 Z " fill="#000C37" transform="translate(189,21)"/>
<path d="M0 0 C1.65 0 3.3 0 5 0 C5 0.33 5 0.66 5 1 C3.35 1 1.7 1 0 1 C0 0.67 0 0.34 0 0 Z " fill="#000C1D" transform="translate(34,21)"/>
<path d="M0 0 C0.99 0.495 0.99 0.495 2 1 C1.67 1.99 1.34 2.98 1 4 C0.67 2.68 0.34 1.36 0 0 Z " fill="#001533" transform="translate(236,16)"/>
<path d="M0 0 C0.99 0.495 0.99 0.495 2 1 C1.67 1.66 1.34 2.32 1 3 C0.67 2.01 0.34 1.02 0 0 Z " fill="#FF008A" transform="translate(166,179)"/>
<path d="M0 0 C4 1 4 1 4 1 Z " fill="#EF006A" transform="translate(204,172)"/>
<path d="M0 0 C0.66 0.33 1.32 0.66 2 1 C1.01 1 0.02 1 -1 1 C-0.67 0.67 -0.34 0.34 0 0 Z " fill="#EF00BF" transform="translate(173,138)"/>
<path d="M0 0 C1 4 1 4 1 4 Z " fill="#000000" transform="translate(59,64)"/>
<path d="M0 0 C0.99 0.495 0.99 0.495 2 1 C1.67 1.66 1.34 2.32 1 3 C0.67 2.01 0.34 1.02 0 0 Z " fill="#FF0AB4" transform="translate(281,61)"/>
<path d="M0 0 C0.99 0.33 1.98 0.66 3 1 C2.01 1 1.02 1 0 1 C0 0.67 0 0.34 0 0 Z " fill="#E900D4" transform="translate(278,59)"/>
<path d="M0 0 C4 1 4 1 4 1 Z " fill="#EF008A" transform="translate(271,56)"/>
<path d="M0 0 C4 1 4 1 4 1 Z " fill="#BF0000" transform="translate(267,55)"/>
<path d="M0 0 C1 4 1 4 1 4 Z " fill="#000C37" transform="translate(22,32)"/>
<path d="M0 0 C0 3 0 3 0 3 Z " fill="#001452" transform="translate(180,27)"/>
<path d="M0 0 C4 1 4 1 4 1 Z " fill="#002020" transform="translate(201,21)"/>
<path d="M0 0 C0 3 0 3 0 3 Z " fill="#001722" transform="translate(255,11)"/>
<path d="M0 0 C0.99 0.495 0.99 0.495 2 1 C1.67 1.66 1.34 2.32 1 3 C0.67 2.01 0.34 1.02 0 0 Z " fill="#001230" transform="translate(233,11)"/>
<path d="M0 0 C0.66 0.33 1.32 0.66 2 1 C1.01 1 0.02 1 -1 1 C-0.67 0.67 -0.34 0.34 0 0 Z " fill="#001025" transform="translate(260,6)"/>
<path d="M0 0 C0.66 0.33 1.32 0.66 2 1 C1.01 1 0.02 1 -1 1 C-0.67 0.67 -0.34 0.34 0 0 Z " fill="#001030" transform="translate(179,5)"/>
<path d="M0 0 C0.99 0.33 1.98 0.66 3 1 C2.01 1 1.02 1 0 1 C0 0.67 0 0.34 0 0 Z " fill="#000C22" transform="translate(226,5)"/>
<path d="M0 0 C3 1 3 1 3 1 Z " fill="#FF008D" transform="translate(180,191)"/>
<path d="" fill="#FF00C6" transform="translate(0,0)"/>
<path d="M0 0 C3 1 3 1 3 1 Z " fill="#E900D4" transform="translate(208,171)"/>
<path d="M0 0 C0.33 0.66 0.66 1.32 1 2 C0.34 1.67 -0.32 1.34 -1 1 C-0.67 0.67 -0.34 0.34 0 0 Z " fill="#C600AA" transform="translate(213,168)"/>
<path d="" fill="#BF00AA" transform="translate(0,0)"/>
<path d="M0 0 C3 1 3 1 3 1 Z " fill="#001531" transform="translate(104,92)"/>
<path d="M0 0 C3 1 3 1 3 1 Z " fill="#001C38" transform="translate(83,92)"/>
<path d="M0 0 C3 1 3 1 3 1 Z " fill="#001540" transform="translate(80,91)"/>
<path d="M0 0 C3 1 3 1 3 1 Z " fill="#FF0063" transform="translate(273,86)"/>
<path d="M0 0 C0.66 0.66 1.32 1.32 2 2 C1.34 2 0.68 2 0 2 C0 1.34 0 0.68 0 0 Z " fill="#00002A" transform="translate(68,82)"/>
<path d="M0 0 C0.99 0.495 0.99 0.495 2 1 C1.01 1.495 1.01 1.495 0 2 C0 1.34 0 0.68 0 0 Z " fill="#FF1172" transform="translate(256,61)"/>
<path d="" fill="#00002A" transform="translate(0,0)"/>
<path d="M0 0 C3 1 3 1 3 1 Z " fill="#E2009C" transform="translate(264,56)"/>
<path d="M0 0 C3 1 3 1 3 1 Z " fill="#001540" transform="translate(205,22)"/>
<path d="M0 0 C3 1 3 1 3 1 Z " fill="#000038" transform="translate(46,21)"/>
<path d="M0 0 C0.66 0 1.32 0 2 0 C1.67 0.66 1.34 1.32 1 2 C0.67 1.34 0.34 0.68 0 0 Z " fill="#001F2D" transform="translate(280,9)"/>
<path d="M0 0 C2 1 2 1 2 1 Z " fill="#FF0095" transform="translate(208,191)"/>
<path d="M0 0 C2 1 2 1 2 1 Z " fill="#DF0080" transform="translate(210,190)"/>
<path d="M0 0 C2 1 2 1 2 1 Z " fill="#DF0040" transform="translate(178,190)"/>
<path d="M0 0 C2 1 2 1 2 1 Z " fill="#FF00DF" transform="translate(212,189)"/>
<path d="M0 0 C2 1 2 1 2 1 Z " fill="#FF0080" transform="translate(175,188)"/>
<path d="M0 0 C2 1 2 1 2 1 Z " fill="#FF0080" transform="translate(215,187)"/>
<path d="M0 0 C2 1 2 1 2 1 Z " fill="#FF00D4" transform="translate(172,186)"/>
<path d="" fill="#DF00BF" transform="translate(0,0)"/>
<path d="" fill="#DF0080" transform="translate(0,0)"/>
<path d="" fill="#D4007F" transform="translate(0,0)"/>
<path d="" fill="#FF0095" transform="translate(0,0)"/>
<path d="" fill="#FF0080" transform="translate(0,0)"/>
<path d="M0 0 C2 1 2 1 2 1 Z " fill="#FF0040" transform="translate(176,136)"/>
<path d="M0 0 C2 1 2 1 2 1 Z " fill="#9F0080" transform="translate(178,135)"/>
<path d="M0 0 C2 1 2 1 2 1 Z " fill="#FF00BF" transform="translate(180,134)"/>
<path d="M0 0 C2 1 2 1 2 1 Z " fill="#FF00AA" transform="translate(183,133)"/>
<path d="M0 0 C2 1 2 1 2 1 Z " fill="#000055" transform="translate(107,91)"/>
<path d="M0 0 C2 1 2 1 2 1 Z " fill="#002020" transform="translate(110,90)"/>
<path d="M0 0 C2 1 2 1 2 1 Z " fill="#002020" transform="translate(78,90)"/>
<path d="M0 0 C2 1 2 1 2 1 Z " fill="#002A2A" transform="translate(76,89)"/>
<path d="M0 0 C2 1 2 1 2 1 Z " fill="#000040" transform="translate(73,87)"/>
<path d="M0 0 C2 1 2 1 2 1 Z " fill="#D400AA" transform="translate(263,86)"/>
<path d="M0 0 C2 1 2 1 2 1 Z " fill="#000080" transform="translate(116,86)"/>
<path d="M0 0 C2 1 2 1 2 1 Z " fill="#FF0095" transform="translate(261,85)"/>
<path d="M0 0 C2 1 2 1 2 1 Z " fill="#D400D4" transform="translate(277,84)"/>
<path d="M0 0 C2 1 2 1 2 1 Z " fill="#FF00D4" transform="translate(259,84)"/>
<path d="" fill="#FF00B4" transform="translate(0,0)"/>
<path d="" fill="#000000" transform="translate(0,0)"/>
<path d="" fill="#000000" transform="translate(0,0)"/>
<path d="" fill="#000000" transform="translate(0,0)"/>
<path d="" fill="#000000" transform="translate(0,0)"/>
<path d="M0 0 C2 1 2 1 2 1 Z " fill="#00204A" transform="translate(109,69)"/>
<path d="M0 0 C2 1 2 1 2 1 Z " fill="#002020" transform="translate(92,69)"/>
<path d="M0 0 C2 1 2 1 2 1 Z " fill="#002020" transform="translate(111,68)"/>
<path d="M0 0 C2 1 2 1 2 1 Z " fill="#001515" transform="translate(90,68)"/>
<path d="" fill="#FF15AA" transform="translate(0,0)"/>
<path d="" fill="#000040" transform="translate(0,0)"/>
<path d="" fill="#003040" transform="translate(0,0)"/>
<path d="M0 0 C2 1 2 1 2 1 Z " fill="#D400D4" transform="translate(260,58)"/>
<path d="M0 0 C2 1 2 1 2 1 Z " fill="#DF00BF" transform="translate(275,57)"/>
<path d="M0 0 C2 1 2 1 2 1 Z " fill="#00006A" transform="translate(274,34)"/>
<path d="M0 0 C2 1 2 1 2 1 Z " fill="#00006A" transform="translate(262,34)"/>
<path d="M0 0 C2 1 2 1 2 1 Z " fill="#00002A" transform="translate(276,33)"/>
<path d="M0 0 C2 1 2 1 2 1 Z " fill="#002A2A" transform="translate(260,33)"/>
<path d="" fill="#004444" transform="translate(0,0)"/>
<path d="" fill="#001944" transform="translate(0,0)"/>
<path d="" fill="#001944" transform="translate(0,0)"/>
<path d="" fill="#004A4A" transform="translate(0,0)"/>
<path d="" fill="#00156A" transform="translate(0,0)"/>
<path d="M0 0 C2 1 2 1 2 1 Z " fill="#001515" transform="translate(28,24)"/>
<path d="M0 0 C2 1 2 1 2 1 Z " fill="#002020" transform="translate(32,22)"/>
<path d="" fill="#002F44" transform="translate(0,0)"/>
<path d="M0 0 C2 1 2 1 2 1 Z " fill="#00002A" transform="translate(276,6)"/>
<path d="M0 0 C2 1 2 1 2 1 Z " fill="#00006A" transform="translate(274,5)"/>
<path d="M0 0 C2 1 2 1 2 1 Z " fill="#000040" transform="translate(26,4)"/>
<path d="M0 0 C2 1 2 1 2 1 Z " fill="#002A6A" transform="translate(223,3)"/>
<path d="M0 0 C2 1 2 1 2 1 Z " fill="#002020" transform="translate(182,3)"/>
<path d="M0 0 C2 1 2 1 2 1 Z " fill="#00006A" transform="translate(184,2)"/>
<path d="M0 0 C2 1 2 1 2 1 Z " fill="#002020" transform="translate(29,2)"/>
<path d="M0 0 C2 1 2 1 2 1 Z " fill="#00002A" transform="translate(219,1)"/>
<path d="M0 0 C2 1 2 1 2 1 Z " fill="#00006A" transform="translate(186,1)"/>
<path d="M0 0 C2 1 2 1 2 1 Z " fill="#00006A" transform="translate(31,1)"/>
<path d="M0 0 C2 1 2 1 2 1 Z " fill="#002A55" transform="translate(217,0)"/>
<path d="" fill="#BF0080" transform="translate(0,0)"/>
<path d="" fill="#CC0099" transform="translate(0,0)"/>
<path d="" fill="#BF0080" transform="translate(0,0)"/>
<path d="" fill="#FF0080" transform="translate(0,0)"/>
<path d="" fill="#FF00AA" transform="translate(0,0)"/>
<path d="" fill="#FF00AA" transform="translate(0,0)"/>
<path d="" fill="#FF00AA" transform="translate(0,0)"/>
<path d="" fill="#FF00AA" transform="translate(0,0)"/>
<path d="" fill="#D52B80" transform="translate(0,0)"/>
<path d="" fill="#FF0099" transform="translate(0,0)"/>
<path d="" fill="#FF3399" transform="translate(0,0)"/>
<path d="" fill="#E61A99" transform="translate(0,0)"/>
<path d="" fill="#FF209F" transform="translate(0,0)"/>
<path d="" fill="#BF0080" transform="translate(0,0)"/>
<path d="" fill="#FF00AA" transform="translate(0,0)"/>
<path d="" fill="#FF00AA" transform="translate(0,0)"/>
<path d="" fill="#FF00AA" transform="translate(0,0)"/>
<path d="" fill="#FF00AA" transform="translate(0,0)"/>
<path d="" fill="#FF00AA" transform="translate(0,0)"/>
<path d="" fill="#FF00AA" transform="translate(0,0)"/>
<path d="" fill="#FF0000" transform="translate(0,0)"/>
<path d="" fill="#FF00FF" transform="translate(0,0)"/>
<path d="" fill="#000000" transform="translate(0,0)"/>
<path d="" fill="#000000" transform="translate(0,0)"/>
<path d="" fill="#000000" transform="translate(0,0)"/>
<path d="" fill="#004040" transform="translate(0,0)"/>
<path d="" fill="#004040" transform="translate(0,0)"/>
<path d="" fill="#003333" transform="translate(0,0)"/>
<path d="" fill="#000055" transform="translate(0,0)"/>
<path d="" fill="#BF0080" transform="translate(0,0)"/>
<path d="" fill="#003333" transform="translate(0,0)"/>
<path d="" fill="#000055" transform="translate(0,0)"/>
<path d="" fill="#002449" transform="translate(0,0)"/>
<path d="" fill="#000055" transform="translate(0,0)"/>
<path d="" fill="#CC0099" transform="translate(0,0)"/>
<path d="" fill="#FF00AA" transform="translate(0,0)"/>
<path d="" fill="#002040" transform="translate(0,0)"/>
<path d="" fill="#FF3399" transform="translate(0,0)"/>
<path d="" fill="#FF00BF" transform="translate(0,0)"/>
<path d="" fill="#FF2BAA" transform="translate(0,0)"/>
<path d="" fill="#FF00BF" transform="translate(0,0)"/>
<path d="" fill="#000000" transform="translate(0,0)"/>
<path d="" fill="#D52BAA" transform="translate(0,0)"/>
<path d="" fill="#000000" transform="translate(0,0)"/>
<path d="" fill="#000000" transform="translate(0,0)"/>
<path d="" fill="#000000" transform="translate(0,0)"/>
<path d="" fill="#005555" transform="translate(0,0)"/>
<path d="" fill="#000080" transform="translate(0,0)"/>
<path d="" fill="#000080" transform="translate(0,0)"/>
<path d="" fill="#000080" transform="translate(0,0)"/>
<path d="" fill="#002449" transform="translate(0,0)"/>
<path d="" fill="#D52BAA" transform="translate(0,0)"/>
<path d="" fill="#FF00BF" transform="translate(0,0)"/>
<path d="" fill="#CC0099" transform="translate(0,0)"/>
<path d="" fill="#BF0080" transform="translate(0,0)"/>
<path d="" fill="#004040" transform="translate(0,0)"/>
<path d="" fill="#004040" transform="translate(0,0)"/>
<path d="" fill="#003333" transform="translate(0,0)"/>
<path d="" fill="#003333" transform="translate(0,0)"/>
<path d="" fill="#002B2B" transform="translate(0,0)"/>
<path d="" fill="#002B2B" transform="translate(0,0)"/>
<path d="" fill="#003333" transform="translate(0,0)"/>
<path d="" fill="#002449" transform="translate(0,0)"/>
<path d="" fill="#003333" transform="translate(0,0)"/>
<path d="" fill="#002B55" transform="translate(0,0)"/>
<path d="" fill="#001C39" transform="translate(0,0)"/>
<path d="" fill="#002B55" transform="translate(0,0)"/>
<path d="" fill="#003333" transform="translate(0,0)"/>
<path d="" fill="#004040" transform="translate(0,0)"/>
<path d="" fill="#000000" transform="translate(0,0)"/>
<path d="" fill="#002449" transform="translate(0,0)"/>
<path d="" fill="#002B2B" transform="translate(0,0)"/>
<path d="" fill="#003333" transform="translate(0,0)"/>
<path d="" fill="#003333" transform="translate(0,0)"/>
<path d="" fill="#002B55" transform="translate(0,0)"/>
<path d="" fill="#003333" transform="translate(0,0)"/>
<path d="" fill="#004040" transform="translate(0,0)"/>
<path d="" fill="#002B55" transform="translate(0,0)"/>
<path d="" fill="#004040" transform="translate(0,0)"/>
<path d="" fill="#002B2B" transform="translate(0,0)"/>
<path d="" fill="#005555" transform="translate(0,0)"/>
<path d="" fill="#004040" transform="translate(0,0)"/>
<path d="" fill="#003333" transform="translate(0,0)"/>
<path d="" fill="#005555" transform="translate(0,0)"/>
<path d="" fill="#004040" transform="translate(0,0)"/>
</svg>
